<svg width="25" height="24" viewBox="0 0 25 24" fill="none" xmlns="http://www.w3.org/2000/svg">
    <path
        d="M21.8388 24L17.2078 19.8348C16.3801 20.5129 15.4282 21.0497 14.3521 21.4453C13.2761 21.8409 12.131 22.0386 10.917 22.0386C7.90959 22.0386 5.36459 20.9717 3.28201 18.838C1.19944 16.7042 0.157599 14.0979 0.156495 11.0193C0.155391 7.94069 1.19723 5.33448 3.28201 3.20069C5.3668 1.0669 7.9118 0 10.917 0C13.9222 0 16.4678 1.0669 18.5537 3.20069C20.6396 5.33448 21.6809 7.94069 21.6775 11.0193C21.6775 12.2625 21.4844 13.4351 21.0981 14.537C20.7119 15.639 20.1876 16.6137 19.5254 17.4614L24.1565 21.6266L21.8388 24ZM10.917 18.6481C12.9864 18.6481 14.7456 17.9067 16.1946 16.4239C17.6437 14.9411 18.3677 13.1395 18.3666 11.0193C18.3655 8.89909 17.6415 7.09814 16.1946 5.61646C14.7478 4.13479 12.9886 3.39282 10.917 3.39056C8.84548 3.3883 7.08683 4.13027 5.64105 5.61646C4.19528 7.10266 3.47074 8.90361 3.46743 11.0193C3.46412 13.135 4.18866 14.9365 5.64105 16.4239C7.09345 17.9112 8.8521 18.6526 10.917 18.6481Z"
        fill="white" />
</svg>