<svg width="60" height="60" viewBox="0 0 60 60" fill="none" xmlns="http://www.w3.org/2000/svg">
<path d="M45 25H35V15C35 13.6739 34.4732 12.4021 33.5355 11.4645C32.5979 10.5268 31.3261 10 30 10C28.6739 10 27.4021 10.5268 26.4645 11.4645C25.5268 12.4021 25 13.6739 25 15L25.1775 25H15C13.6739 25 12.4021 25.5268 11.4645 26.4645C10.5268 27.4021 10 28.6739 10 30C10 31.3261 10.5268 32.5979 11.4645 33.5355C12.4021 34.4732 13.6739 35 15 35L25.1775 34.8225L25 45C25 46.3261 25.5268 47.5979 26.4645 48.5355C27.4021 49.4732 28.6739 50 30 50C31.3261 50 32.5979 49.4732 33.5355 48.5355C34.4732 47.5979 35 46.3261 35 45V34.8225L45 35C46.3261 35 47.5979 34.4732 48.5355 33.5355C49.4732 32.5979 50 31.3261 50 30C50 28.6739 49.4732 27.4021 48.5355 26.4645C47.5979 25.5268 46.3261 25 45 25Z" fill="white"/>
</svg>
