<svg width="15" height="15" viewBox="0 0 15 15" fill="none" xmlns="http://www.w3.org/2000/svg">
<path d="M13.5515 15L10.6571 12.3967C10.1397 12.8206 9.54479 13.1561 8.87226 13.4033C8.19973 13.6505 7.48408 13.7741 6.72533 13.7741C4.84569 13.7741 3.25506 13.1073 1.95345 11.7737C0.65184 10.4401 0.000690325 8.81122 5.47442e-07 6.88707C-0.00068923 4.96293 0.650461 3.33405 1.95345 2.00043C3.25644 0.66681 4.84707 0 6.72533 0C8.60359 0 10.1946 0.66681 11.4982 2.00043C12.8019 3.33405 13.4527 4.96293 13.4507 6.88707C13.4507 7.66408 13.3299 8.39693 13.0885 9.08564C12.8471 9.77435 12.5195 10.3836 12.1056 10.9134L15 13.5166L13.5515 15ZM6.72533 11.6551C8.01866 11.6551 9.11817 11.1917 10.0238 10.2649C10.9295 9.33817 11.382 8.21222 11.3813 6.88707C11.3806 5.56193 10.9281 4.43634 10.0238 3.51029C9.11955 2.58424 8.02004 2.12051 6.72533 2.1191C5.43062 2.11769 4.33146 2.58142 3.42785 3.51029C2.52424 4.43916 2.0714 5.56476 2.06933 6.88707C2.06726 8.20939 2.5201 9.33534 3.42785 10.2649C4.3356 11.1945 5.43476 11.6579 6.72533 11.6551Z" fill="black"/>
</svg>
