<svg width="24" height="24" viewBox="0 0 24 24" fill="none" xmlns="http://www.w3.org/2000/svg">
<path fill-rule="evenodd" clip-rule="evenodd" d="M2.78248 6.43351C3.0315 6.22899 3.34376 6.11719 3.666 6.11719H20.6376C20.836 6.11719 21.0316 6.16397 21.2086 6.25373L21.41 6.3559C21.5228 6.41311 21.6139 6.50536 21.6698 6.61879C21.7188 6.71814 21.7385 6.82935 21.7267 6.93948L20.0414 22.6618C19.9977 23.0694 19.7889 23.4413 19.4637 23.6908C19.2021 23.8916 18.8815 24.0005 18.5516 24.0005H5.29942C4.96341 24.0005 4.63872 23.879 4.38517 23.6585C4.1202 23.4281 3.95201 23.1061 3.91427 22.757L2.28203 7.65885C2.23157 7.19215 2.41973 6.73145 2.78248 6.43351ZM8.55581 10.1682C8.54521 9.70718 8.16844 9.33898 7.7073 9.33898C7.22324 9.33898 6.83721 9.74317 6.85945 10.2267L7.32338 20.313C7.34137 20.7042 7.66377 21.0121 8.05538 21.0121C8.46667 21.0121 8.79742 20.6737 8.78796 20.2625L8.55581 10.1682ZM12.7784 10.1655C12.7784 9.70902 12.4083 9.33898 11.9518 9.33898C11.4909 9.33898 11.1191 9.71595 11.1254 10.1768L11.2648 20.3591C11.2704 20.773 11.6076 21.1055 12.0215 21.1055C12.4395 21.1055 12.7784 20.7667 12.7784 20.3487V10.1655ZM17.1235 10.1731C17.1547 9.6446 16.7346 9.1989 16.2052 9.1989C15.7036 9.1989 15.2945 9.60063 15.2854 10.1021L15.1003 20.2873C15.093 20.6855 15.4138 21.0121 15.812 21.0121C16.1888 21.0121 16.5004 20.7184 16.5226 20.3422L17.1235 10.1731Z" fill="black"/>
<path fill-rule="evenodd" clip-rule="evenodd" d="M1.1548 4.90272C0.517024 4.90272 0 4.3857 0 3.74792V3.65163C0 3.37857 0.118304 3.11891 0.324348 2.93972C0.496044 2.79041 0.71592 2.70817 0.943461 2.70817H6.00162C6.74946 2.70817 7.3557 2.10193 7.3557 1.35409C7.3557 0.606245 7.96195 0 8.70979 0H15.1291C15.877 0 16.4832 0.606245 16.4832 1.35409C16.4832 2.10193 17.0895 2.70817 17.8373 2.70817H23.0948C23.2986 2.70817 23.4963 2.77692 23.6562 2.90328C23.8733 3.07496 24 3.33656 24 3.61338V3.73869C24 4.38157 23.4788 4.90272 22.836 4.90272H1.1548ZM9.52911 1.2607C9.1294 1.2607 8.80537 1.58473 8.80537 1.98444C8.80537 2.38414 9.1294 2.70817 9.52911 2.70817H14.3635C14.7632 2.70817 15.0872 2.38414 15.0872 1.98444C15.0872 1.58473 14.7632 1.2607 14.3635 1.2607H9.52911Z" fill="black"/>
</svg>
