<svg width="111" height="48" viewBox="0 0 111 48" fill="none" xmlns="http://www.w3.org/2000/svg">
<path d="M38 0.799997H51.5V16.25H55V28.75H51.5V47.2H38V0.799997ZM0.5 22.55V11.8H36.45V22.55H34.55C35.15 24.5 35.45 26.65 35.45 29.05C35.45 40 28.95 46.35 18.5 46.35C8.3 46.35 1.8 40.3 1.5 29.8H14.25C14.55 33.35 15.95 35.3 18.5 35.3C21.2 35.3 22.7 32.9 22.7 29.05C22.7 25.25 21.2 22.8 18.5 22.8C15.95 22.8 14.25 25.2 14.25 29.3L1.5 28.3C1.55 26.2 1.85 24.3 2.4 22.55H0.5ZM3.25 10.05V0.799997H33.75V10.05H3.25ZM56.2559 34.95H76.1559V26.05H90.9059V34.95H110.756V45.95H56.2559V34.95ZM58.4059 30.95C58.4059 11.05 60.3559 6.3 67.2559 1.8H83.1059C81.4059 3.55 80.0559 5.15 78.9059 6.75C83.5059 5.8 87.7559 5.35 91.7559 5.35C103.506 5.35 108.606 9.35 108.606 18.6V30.95L93.1059 31.45V23.1C93.1059 19.35 91.4559 17.9 87.1559 17.9C83.0059 17.9 78.1559 18.45 74.4059 19.35C74.0559 22.6 73.9059 26.5 73.9059 31.45L58.4059 30.95Z" fill="black"/>
</svg>
